<?xml version="1.0" encoding="utf-8"?>
<!-- Generator: Adobe Illustrator 16.0.0, SVG Export Plug-In . SVG Version: 6.00 Build 0)  -->
<!DOCTYPE svg PUBLIC "-//W3C//DTD SVG 1.1//EN" "http://www.w3.org/Graphics/SVG/1.1/DTD/svg11.dtd">
<svg version="1.1" id="Calque_1" xmlns="http://www.w3.org/2000/svg" xmlns:xlink="http://www.w3.org/1999/xlink" x="0px" y="0px"
	 width="240px" height="360px" viewBox="0 0 240 360" enable-background="new 0 0 240 360" xml:space="preserve">
<g id="g6555" transform="matrix(4,0,0,4,-1260,-2077.0865)">
	<path id="rect2987-1" fill="#FFFFFF" stroke="#010101" stroke-width="0.5" d="M325,519.272h40c5.523,0,10,4.477,10,10v70
		c0,5.523-4.477,10-10,10h-40c-5.523,0-10-4.477-10-10v-70C315,523.749,319.477,519.272,325,519.272z"/>
	<path id="rect3757-5" fill="#F15858" d="M325,524.272h40c2.761,0,5,2.239,5,5v70c0,2.761-2.239,5-5,5h-40c-2.761,0-5-2.239-5-5v-70
		C320,526.51,322.239,524.272,325,524.272z"/>
	<path id="path3773-0-4-8-4-2" fill="#FFFFFF" d="M360,539.272c-22.091,0-40,17.908-40,40c0,5.523,4.477,10,10,10
		c22.092,0,40-17.909,40-40C370,543.749,365.523,539.272,360,539.272z"/>
	<path id="path3962-7" fill="#F15858" d="M345,549.272c-5.523,0-10,4.477-10,10v10c0,5.523,4.477,10,10,10c5.523,0,10-4.477,10-10
		v-10C355,553.749,350.523,549.272,345,549.272z M345,554.272c2.761,0,5,2.239,5,5v10c0,2.761-2.239,5-5,5s-5-2.239-5-5v-10
		C340,556.51,342.239,554.272,345,554.272z"/>
	<path id="path3962-7-1" fill="#FFFFFF" d="M327.5,526.772c-2.761,0-5,2.239-5,5v5c0,2.761,2.239,5,5,5s5-2.239,5-5v-5
		C332.5,529.01,330.261,526.772,327.5,526.772z M327.5,529.272c1.381,0,2.5,1.119,2.5,2.5v5c0,1.381-1.119,2.5-2.5,2.5
		c-1.381,0-2.5-1.119-2.5-2.5v-5C325,530.391,326.119,529.272,327.5,529.272z"/>
	<path id="path3962-7-1-2" fill="#FFFFFF" d="M362.5,586.772c-2.761,0-5,2.239-5,5v5c0,2.761,2.239,5,5,5s5-2.239,5-5v-5
		C367.5,589.01,365.261,586.772,362.5,586.772z M362.5,589.272c1.381,0,2.5,1.119,2.5,2.5v5c0,1.381-1.119,2.5-2.5,2.5
		c-1.381,0-2.5-1.119-2.5-2.5v-5C360,590.391,361.119,589.272,362.5,589.272z"/>
</g>
</svg>
